<?xml version="1.0" encoding="UTF-8"?>
<svg width="24" height="24" viewBox="0 0 24 24" fill="none" xmlns="http://www.w3.org/2000/svg">
  <path d="M9.5 19C9.5 20.1046 10.3954 21 11.5 21H12.5C13.6046 21 14.5 20.1046 14.5 19V18H9.5V19Z" stroke="currentColor" stroke-width="2" stroke-linecap="round" stroke-linejoin="round"/>
  <path d="M7 11C7 8.23858 9.23858 6 12 6C14.7614 6 17 8.23858 17 11C17 13.2091 15.7489 15.1274 14 16V17H10V16C8.25114 15.1274 7 13.2091 7 11Z" stroke="currentColor" stroke-width="2" stroke-linecap="round" stroke-linejoin="round"/>
  <path d="M12 3V4M18.5 5.5L17.5 6.5M5.5 5.5L6.5 6.5M20 11H21M3 11H4" stroke="currentColor" stroke-width="2" stroke-linecap="round" stroke-linejoin="round"/>
</svg>
