<svg width="40" height="40" viewBox="0 0 40 40" fill="none" xmlns="http://www.w3.org/2000/svg">
<g clip-path="url(#clip0_19_22)">
<rect width="40" height="40" rx="6" fill="#EFDDD1" fill-opacity="0.53"/>
<path d="M10.4758 27.299L5.27777 21.526V27H1.36777V12.372H5.27777V18.191L10.2228 12.234L13.0518 14.603L8.42877 19.893L13.1898 24.677L10.4758 27.299ZM15.024 27V12.372H25.305V15.339H18.934V18.95H24.615V21.917H18.934V27H15.024ZM34.5075 27.092C33.0509 27.092 31.7705 26.816 30.6665 26.264C29.5625 25.6967 28.6962 24.8533 28.0675 23.734C27.4542 22.6147 27.1475 21.227 27.1475 19.571C27.1475 17.3323 27.7455 15.5613 28.9415 14.258C30.1375 12.9393 31.9162 12.28 34.2775 12.28C35.1055 12.28 35.9259 12.372 36.7385 12.556C37.5665 12.74 38.3332 13.039 39.0385 13.453L38.0035 16.351C37.6355 16.121 37.1755 15.9447 36.6235 15.822C36.0715 15.684 35.5425 15.615 35.0365 15.615C33.8405 15.615 32.9129 15.983 32.2535 16.719C31.6095 17.4397 31.2875 18.4133 31.2875 19.64C31.2875 20.9893 31.6555 22.0167 32.3915 22.722C33.1429 23.412 34.1089 23.757 35.2895 23.757C35.9489 23.757 36.5699 23.6573 37.1525 23.458C37.7352 23.2587 38.2412 23.0133 38.6705 22.722L39.8665 25.298C39.2992 25.7273 38.5939 26.1337 37.7505 26.517C36.9072 26.9003 35.8262 27.092 34.5075 27.092Z" fill="#E16E29"/>
</g>
<defs>
<clipPath id="clip0_19_22">
<rect width="40" height="40" rx="6" fill="white"/>
</clipPath>
</defs>
</svg>
