<svg width="876" height="436" viewBox="0 0 876 436" fill="none" xmlns="http://www.w3.org/2000/svg">
<g clip-path="url(#clip0_18_3)">
<path fill-rule="evenodd" clip-rule="evenodd" d="M875.257 9.42498C875.701 10.1057 875.889 10.6648 875.936 11.4725C876.174 15.5603 876.113 19.7318 876.053 23.8781C876.026 25.7347 875.999 27.5863 875.999 29.4231L876.003 64.1418L876.009 170.807L876.005 363.698L876.002 410.936C876.002 412.148 876.054 413.749 876.111 415.518C876.267 420.308 876.462 426.337 875.777 429.268C875.673 429.714 875.495 430.069 875.262 430.46C823.541 431.093 771.819 431.219 720.095 430.839L467.575 430.832L155.108 430.739C104.992 431.181 54.8747 431.224 4.75746 430.868L4.28015 9.10209C15.6604 8.84897 27.0776 8.91388 38.4834 8.97873H38.4836H38.4839H38.4841C43.7334 9.00858 48.9803 9.03841 54.2199 9.03722L149.813 9.01758L438.492 9.00584L717.135 8.96824C731.916 8.9679 746.708 8.90306 761.505 8.8382C799.431 8.67195 837.386 8.50558 875.257 9.42498ZM825.827 98.6241C824.876 98.6696 823.924 98.7105 822.971 98.7515C820.772 98.846 818.571 98.9406 816.378 99.0915C816.734 101.335 816.637 106.309 816.549 110.851V110.853V110.856V110.859C816.497 113.557 816.448 116.101 816.498 117.831C816.558 119.876 816.817 123.794 817.138 128.645L817.138 128.648C818.172 144.262 819.844 169.533 817.56 173.11C812.27 173.247 807.639 172.823 803.578 168.974C799.338 164.956 795.943 159.62 792.685 154.499L792.684 154.499L792.684 154.498C791.715 152.975 790.758 151.471 789.794 150.026C773.576 125.71 757.176 105.689 725.228 106.204C690.617 106.761 659.571 133.76 636.738 157.435L635.808 158.4L635.416 158.805C625.075 169.522 614.305 180.684 605.609 192.715C583.529 223.262 570.696 263.918 571.395 301.578C571.699 317.981 574.917 335.596 581.82 350.483C582.426 351.791 583.842 354.086 585.272 356.404C587.102 359.373 588.956 362.378 589.16 363.39C589.222 363.445 589.284 363.499 589.344 363.555C590.07 364.237 590.623 365.04 591.178 365.847C591.543 366.377 591.909 366.908 592.326 367.408C594.493 370.005 596.909 372.486 599.275 374.903C610.337 386.201 625.786 391.287 641.447 391.015C684.019 390.276 725.351 359.407 756.846 333.498C757.651 332.836 759.048 331.558 760.748 330.001L760.75 329.999C766.159 325.048 774.64 317.286 776.947 317.58C777.627 318.378 777.735 318.787 777.637 319.853C777.306 323.445 772.149 335.515 769.387 337.677C769.223 337.806 769.139 337.859 768.998 337.948L768.925 337.994C797.664 338.607 826.405 338.769 855.148 338.482C856.329 336.613 856.346 334.811 856.366 332.759C856.369 332.465 856.372 332.165 856.378 331.859C856.667 317.854 856.62 303.847 856.574 289.839C856.552 283.352 856.53 276.865 856.542 270.378L856.767 158.293L856.838 122.535C856.853 120.991 856.939 119.052 857.032 116.941C857.285 111.203 857.594 104.187 856.705 100.348C856.579 99.8005 856.279 99.3317 855.934 98.8977C845.901 98.5092 835.866 98.418 825.827 98.6241ZM836.123 28.8795C828.767 29.32 821.333 29.2506 813.931 29.1815C811.505 29.1589 809.083 29.1363 806.668 29.1317L758.112 29.0645L604.871 29.0676L221.7 29.0773L100.543 29.0589C74.706 28.827 48.8693 28.874 23.0331 29.1997C22.5507 41.2293 22.8808 53.2808 23.2108 65.3269C23.3718 71.2067 23.5329 77.0851 23.5994 82.9591C30.388 83.1566 37.1775 83.3174 43.9679 83.4414L608.747 83.2541L757.171 83.3265C790.121 83.5141 823.071 83.5024 856.021 83.2915C857.389 80.4532 858.399 34.0875 856.98 30.2547C856.853 29.9108 856.673 29.5908 856.477 29.2818C849.658 28.7976 842.961 28.5939 836.123 28.8795ZM586.824 98.6242L580.4 98.8443C581.542 101.2 586.038 154.247 585.037 157.384C585.006 157.482 584.967 157.578 584.935 157.676C584.899 157.785 584.869 157.896 584.834 158.005C584.826 158.029 584.817 158.053 584.809 158.077L584.79 158.129C584.781 158.153 584.773 158.177 584.764 158.201C579.892 158.495 574.993 158.544 570.097 158.593C566.902 158.624 563.709 158.656 560.524 158.756C562.216 155.68 560.66 149.79 559.713 146.543C555.528 132.192 545.946 119.362 532.77 112.129C531.579 111.477 530.361 110.877 529.118 110.33C527.875 109.783 526.61 109.291 525.325 108.853C524.039 108.415 522.737 108.033 521.418 107.707C520.099 107.382 518.769 107.113 517.428 106.902C508.82 105.527 499.776 105.728 490.906 105.925L490.906 105.926C488.146 105.987 485.404 106.048 482.697 106.061C475.853 106.093 469.013 106.006 462.174 105.919H462.173H462.173H462.172C457.001 105.853 451.83 105.787 446.657 105.773C446.609 109.127 443.387 115.813 440.877 121.023C439.921 123.007 439.068 124.777 438.533 126.067C434.855 134.935 431.4 143.893 427.945 152.852L427.944 152.853L427.944 152.855L427.943 152.856C425.67 158.748 423.398 164.64 421.062 170.506C420.182 172.715 419.078 175.352 417.872 178.232C413.46 188.768 407.681 202.569 406.506 210.678C437.535 210.228 471.751 209.684 494.887 185.755C498.924 181.58 502.794 176.879 506.142 172.145C506.925 171.038 507.689 169.876 508.46 168.702L508.461 168.702C510.446 165.68 512.481 162.583 515.017 160.163C515.038 160.172 515.058 160.18 515.078 160.189C515.094 160.195 515.109 160.201 515.124 160.207C515.153 160.219 515.182 160.23 515.209 160.241L515.277 160.267C515.612 160.395 515.785 160.461 515.955 160.895C516.692 162.779 515.788 166.007 515.128 167.89C513.197 173.394 510.715 178.813 508.254 184.185C507.254 186.367 506.258 188.541 505.304 190.71C500.8 200.948 496.546 211.344 492.335 221.708C488.784 230.424 485.364 239.191 482.075 248.009C481.466 249.662 480.877 251.339 480.286 253.022L480.286 253.022L480.286 253.022L480.285 253.024L480.285 253.024L480.285 253.024L480.285 253.025C478.592 257.845 476.881 262.716 474.621 267.238C474.15 268.179 473.67 269.013 472.884 269.729C471.948 268.829 470.587 268.372 469.318 267.947L469.316 267.946C469.047 267.856 468.781 267.767 468.525 267.675C471.913 263.197 472.607 252.319 471.845 246.866C470.947 240.433 467.383 235.088 462.252 231.262C451.9 223.542 438.184 222.152 425.7 221.352L405.235 220.434C400.202 228.376 396.727 237.316 393.285 246.171L393.285 246.172C391.976 249.539 390.672 252.895 389.289 256.178C387.475 260.486 385.567 264.793 383.654 269.115L383.652 269.119L383.652 269.119L383.652 269.119L383.652 269.12C378.068 281.732 372.431 294.464 368.887 307.665C367.836 311.581 366.984 316.004 367.855 320.023C367.924 320.346 368 320.666 368.085 320.985C368.169 321.304 368.261 321.62 368.362 321.934C368.462 322.248 368.57 322.559 368.686 322.868C368.801 323.177 368.925 323.482 369.056 323.785C369.187 324.088 369.325 324.387 369.471 324.682C369.617 324.978 369.77 325.27 369.931 325.558C370.091 325.846 370.258 326.13 370.433 326.409C370.608 326.689 370.789 326.964 370.977 327.235C371.166 327.506 371.361 327.771 371.562 328.032C371.763 328.293 371.971 328.549 372.186 328.799C372.4 329.05 372.62 329.295 372.847 329.534C373.073 329.774 373.305 330.008 373.544 330.236C373.782 330.464 374.025 330.686 374.274 330.901C374.523 331.117 374.778 331.327 375.038 331.53C375.297 331.733 375.562 331.93 375.831 332.12C376.1 332.31 376.374 332.493 376.653 332.669C381.305 335.591 386.977 336.489 392.337 337.147C406.395 338.873 420.786 338.762 435.046 338.652H435.047L435.053 338.652C439.201 338.62 443.338 338.588 447.452 338.602C452.885 338.62 458.319 338.66 463.754 338.7H463.756H463.757H463.759H463.76H463.76H463.76C481.769 338.833 499.782 338.966 517.781 338.28C517.81 338.215 517.843 338.152 517.87 338.086C518.653 336.155 517.925 331.517 517.304 327.559L517.303 327.559C516.993 325.58 516.709 323.771 516.654 322.556C516.489 318.879 516.583 315.141 516.805 311.469C518.314 286.503 525.193 263.578 535.856 241.042C537.221 238.206 538.629 235.392 540.082 232.601C541.535 229.81 543.031 227.042 544.57 224.297C546.109 221.552 547.692 218.832 549.317 216.137C550.942 213.442 552.608 210.774 554.317 208.131C556.025 205.488 557.774 202.873 559.565 200.285C561.356 197.697 563.186 195.138 565.057 192.608C566.928 190.077 568.838 187.577 570.787 185.107C572.736 182.636 574.724 180.197 576.749 177.789C578.775 175.381 580.838 173.005 582.938 170.662C585.038 168.319 587.174 166.009 589.347 163.733C591.52 161.456 593.727 159.215 595.97 157.008C598.213 154.801 600.49 152.63 602.801 150.494C605.112 148.359 607.456 146.26 609.833 144.198C612.21 142.136 614.618 140.112 617.059 138.125C619.499 136.139 621.97 134.192 624.471 132.283C626.972 130.374 629.503 128.504 632.063 126.675C637.341 122.812 642.756 119.151 648.309 115.694C653.862 112.237 659.536 108.992 665.332 105.96C665.835 105.702 666.581 105.344 667.466 104.921L667.468 104.919C671.075 103.191 676.969 100.367 677.952 98.74C667.259 98.2843 656.555 98.3544 645.854 98.4244H645.853H645.852H645.851C642.5 98.4463 639.149 98.4682 635.798 98.474C619.473 98.3653 603.148 98.4154 586.824 98.6242ZM346.877 98.0755C328.217 101.94 292.091 128.708 267.896 146.636C262.267 150.807 257.283 154.5 253.316 157.314C247.334 161.558 241.284 165.713 235.233 169.869L235.232 169.87L235.232 169.87L235.231 169.87L235.231 169.871C224.494 177.246 213.754 184.624 203.385 192.496C208.166 204.257 213.453 215.754 218.743 227.258C221.857 234.028 224.971 240.8 227.984 247.63C233.592 260.451 239.265 273.244 245.002 286.008L245.346 286.767C251.299 299.919 257.517 313.655 265.947 325.408C269.908 330.793 274.575 335.445 281.491 336.569C291.077 338.126 302.944 333.048 310.522 327.494C318.88 321.369 324.498 312.722 329.27 303.679C334.705 293.381 338.884 282.465 343.049 271.589L343.051 271.585C343.868 269.45 344.685 267.316 345.511 265.189L365.914 212.524L380.613 174.883C381.677 172.23 382.798 169.544 383.929 166.832L383.929 166.831C388.737 155.307 393.749 143.294 395.54 131.202C396.361 125.661 395.992 119.81 392.568 115.143C388.525 109.632 381.12 106.642 374.521 105.72C371.555 105.305 368.78 105.466 365.807 105.734C364.416 102.492 363.046 100.314 359.631 98.9178C355.855 97.3732 350.87 97.6085 346.877 98.0755ZM760.036 353.635C758.376 356.699 755.066 359.838 752.1 362.649C751.062 363.634 750.066 364.578 749.198 365.465C748.251 366.432 747.312 367.401 746.376 368.368L746.368 368.376C741.91 372.978 737.496 377.533 732.497 381.627C717.441 393.956 690.549 407.975 672.156 413.436C671.529 413.623 670.897 413.794 670.261 413.948C702.665 412.555 735.246 412.714 767.676 412.882L826.284 412.887C829.164 412.894 832.085 412.994 835.021 413.094C841.927 413.329 848.914 413.567 855.637 412.613C857.174 409.643 857.437 358.793 856.15 354.806C856.059 354.524 855.952 354.261 855.825 353.994C844.857 352.904 832.835 353.147 821.115 353.384H821.114C815.774 353.492 810.496 353.598 805.409 353.577L777.251 353.4C775.893 353.39 774.525 353.362 773.153 353.335C768.774 353.246 764.347 353.157 760.036 353.635ZM213.476 98.3582H213.476H213.477H213.478H213.478C214.73 98.3703 215.976 98.3825 217.211 98.3808L241.996 98.3677C244.808 98.3678 248.051 98.3122 251.503 98.2529H251.503C262.124 98.0707 274.726 97.8544 282.833 99.1236C284.432 99.374 285.603 99.6863 286.542 101.086C288.109 103.424 287.883 107.629 287.319 110.24C287.044 111.515 286.684 112.798 285.976 113.907C283.498 117.791 279.368 121.223 275.626 124.333L275.625 124.335C274.832 124.994 274.056 125.639 273.317 126.27C249.633 146.518 223.506 163.201 197.332 179.915C193.161 182.577 188.99 185.241 184.827 187.92C173.491 194.851 162.234 201.909 151.057 209.094C149.064 210.353 147.06 211.594 145.056 212.836L145.055 212.837L145.055 212.837L145.054 212.837C140.605 215.593 136.156 218.35 131.827 221.294C134.656 207.098 139.317 193.44 143.978 179.778C144.958 176.907 145.937 174.036 146.9 171.159C147.845 168.336 148.764 165.496 149.685 162.651L149.685 162.651C152.906 152.695 156.143 142.689 160.557 133.234C164.161 125.515 168.507 118.009 174.139 111.58C182.336 102.226 190.368 99.4005 202.558 98.5905C206.143 98.2868 209.831 98.3227 213.476 98.3582ZM168.298 212.685L168.298 212.685C168.269 212.673 168.237 212.659 168.198 212.641C168.174 212.63 168.147 212.618 168.117 212.604C166.678 213.416 164.762 214.464 162.57 215.664C153.38 220.693 139.33 228.383 135.157 232.428C127.801 239.559 110.301 291.205 106.666 304.221C104.39 312.37 101.181 324.21 105.715 332.165C107.465 335.236 110.081 336.955 113.469 337.811C120.114 339.488 129.486 339.097 137.847 338.748C141.112 338.612 144.222 338.482 146.956 338.484L170.346 338.516C172.162 338.528 174.02 338.584 175.899 338.641C182.48 338.84 189.318 339.046 195.496 337.393C196.55 337.108 197.582 336.757 198.591 336.34C199.6 335.923 200.579 335.443 201.526 334.901C202.474 334.358 203.383 333.758 204.254 333.099C205.125 332.44 205.951 331.728 206.73 330.963C210 327.715 211.824 323.918 211.775 319.279C211.714 313.621 209.866 307.896 207.95 302.633C203.046 289.162 196.958 276.214 190.869 263.263L190.869 263.262C188.183 257.549 185.496 251.835 182.911 246.075C180.84 241.459 179.049 236.73 177.261 232.009C175.487 227.324 173.716 222.646 171.675 218.091C171.655 218.046 171.635 218 171.614 217.955C171.576 217.868 171.536 217.78 171.497 217.69L171.495 217.687C170.777 216.071 169.897 214.087 168.66 212.931C168.484 212.766 168.449 212.751 168.298 212.685ZM71.069 98.2091L71.1161 98.2075C79.5007 97.926 111.104 96.8648 117.731 100.423C121.366 102.376 123.735 107.419 124.918 111.258C126.696 117.024 125.897 122.355 124.512 128.072C122.299 137.209 119.017 146.164 115.772 155.02L115.769 155.026C115.283 156.355 114.797 157.681 114.315 159.005L96.0165 208.324C87.8596 231.311 79.5133 254.23 70.9775 277.079C70.3505 278.726 69.7268 280.377 69.1025 282.03C64.7516 293.55 60.3711 305.148 54.6092 316.019C53.2392 318.331 51.8561 320.625 50.2679 322.795C43.6572 331.828 35.4204 337.353 24.3376 339.052C23.4707 331.678 23.6607 324.191 23.8497 316.741C23.9116 314.301 23.9734 311.866 23.998 309.439L24.3149 261.898L24.4112 98.8791L71.069 98.2091ZM520.68 352.994L513.029 353.208C481.77 354.161 450.462 353.904 419.171 353.648C407.505 353.552 395.842 353.457 384.185 353.424L147.005 353.452L66.0038 353.451C61.3376 353.445 56.6664 353.398 51.9939 353.35C42.6434 353.256 33.2874 353.162 23.9542 353.394C24.1291 364.823 24.1697 376.253 24.0758 387.684C24.058 389.766 24.008 391.869 23.9578 393.982C23.8108 400.168 23.6619 406.438 24.3127 412.495C40.2312 412.838 56.1514 413.009 72.0733 413.01L437.707 412.905L531.399 412.974C534.175 412.98 537.532 413.179 541.057 413.387C548.158 413.806 555.943 414.266 561.043 413.279C560.897 411.812 559.99 410.954 558.894 410.065C557.485 408.921 556.204 407.907 555.019 406.968C548.945 402.156 545.39 399.34 539.887 391.288C534.894 383.983 531.205 375.17 527.772 366.966C527.592 366.537 527.413 366.11 527.235 365.685C526.826 364.709 526.433 363.714 526.039 362.716C525.119 360.387 524.191 358.039 523.034 355.86C522.414 354.691 521.758 353.781 520.68 352.994Z" fill="#E16E29"/>
</g>
<defs>
<clipPath id="clip0_18_3">
<rect width="876" height="436" fill="white"/>
</clipPath>
</defs>
</svg>
